<svg width="340" height="438" viewBox="0 0 340 438" fill="none" xmlns="http://www.w3.org/2000/svg">
<path d="M326.537 17.1122C325.723 16.4092 324.732 15.9423 323.672 15.7623C322.612 15.5822 321.523 15.6958 320.523 16.0908L229.686 51.7768C228.499 52.2433 227.494 53.0817 226.823 54.1667C226.152 55.2517 225.85 56.5248 225.963 57.7956C226.076 59.0664 226.597 60.2665 227.449 61.2164C228.3 62.1662 229.437 62.8148 230.688 63.0649L255.344 67.9964V98.4298C255.331 99.6007 255.673 100.748 256.323 101.722C256.974 102.695 257.903 103.45 258.99 103.886C259.717 104.191 260.498 104.349 261.287 104.351C262.058 104.349 262.821 104.193 263.532 103.893C264.242 103.594 264.886 103.156 265.426 102.606L279.501 88.531L300.268 106.806C301.338 107.757 302.719 108.282 304.15 108.284C304.773 108.283 305.391 108.185 305.983 107.993C306.959 107.683 307.837 107.123 308.529 106.369C309.221 105.614 309.703 104.691 309.927 103.692L328.44 22.9074C328.681 21.8597 328.632 20.7659 328.296 19.7444C327.961 18.7228 327.352 17.8126 326.537 17.1122ZM229.885 57.4475C229.836 57.0222 229.932 56.5928 230.157 56.2288C230.383 55.8647 230.724 55.5873 231.126 55.4413L314.392 22.7294L256.856 64.2835L231.46 59.2043C231.038 59.1313 230.653 58.9182 230.367 58.5994C230.082 58.2807 229.912 57.8748 229.885 57.4475ZM262.642 99.8218C262.367 100.097 262.016 100.285 261.634 100.361C261.252 100.437 260.856 100.398 260.496 100.249C260.137 100.1 259.829 99.8473 259.613 99.5236C259.397 99.1998 259.281 98.8192 259.281 98.4298V70.7374L276.539 85.9247L262.642 99.8218ZM324.602 22.0278L306.089 102.812C306.012 103.144 305.851 103.451 305.621 103.703C305.39 103.954 305.098 104.141 304.774 104.246C304.449 104.35 304.103 104.369 303.769 104.3C303.435 104.23 303.125 104.075 302.869 103.85L260.465 66.5343L324.284 20.4433C324.451 20.667 324.567 20.9253 324.622 21.1995C324.677 21.4737 324.67 21.7567 324.602 22.0278Z" fill="#81AEDC"/>
<path d="M259 104.5C259 104.5 212.433 237.375 141 246C102.726 250.621 59.4129 256.954 45.5 221C30.4045 181.99 74.425 149.665 115 139.5C165.093 126.95 203.709 163.165 227.5 209C273.87 298.337 1 332 1 332" stroke="#81AEDC" stroke-width="2" stroke-linecap="round" stroke-dasharray="5 5"/>
<path d="M57.199 395V373.182H65.9348C67.54 373.182 68.8787 373.42 69.9512 373.896C71.0236 374.371 71.8297 375.032 72.3695 375.877C72.9093 376.715 73.1792 377.681 73.1792 378.775C73.1792 379.627 73.0087 380.376 72.6678 381.023C72.3269 381.662 71.8581 382.187 71.2615 382.599C70.6721 383.004 69.9973 383.292 69.2374 383.462V383.675C70.0684 383.711 70.8461 383.945 71.5705 384.379C72.302 384.812 72.8951 385.419 73.3496 386.2C73.8042 386.974 74.0314 387.898 74.0314 388.97C74.0314 390.128 73.7438 391.161 73.1685 392.07C72.6003 392.972 71.7587 393.686 70.6436 394.212C69.5286 394.737 68.1543 395 66.5208 395H57.199ZM61.812 391.229H65.5726C66.8581 391.229 67.7956 390.984 68.3851 390.494C68.9746 389.996 69.2694 389.336 69.2694 388.512C69.2694 387.908 69.1238 387.376 68.8326 386.914C68.5414 386.452 68.1259 386.09 67.5861 385.827C67.0534 385.565 66.4178 385.433 65.6792 385.433H61.812V391.229ZM61.812 382.312H65.2317C65.8638 382.312 66.4249 382.202 66.915 381.982C67.4121 381.754 67.8027 381.435 68.0868 381.023C68.378 380.611 68.5236 380.117 68.5236 379.542C68.5236 378.754 68.2431 378.118 67.682 377.635C67.128 377.152 66.3397 376.911 65.3169 376.911H61.812V382.312ZM80.7937 395H75.8505L83.3825 373.182H89.3271L96.8484 395H91.9052L86.44 378.168H86.2695L80.7937 395ZM80.4847 386.424H92.1609V390.025H80.4847V386.424ZM100.348 373.182H104.854V391.293H111.119V373.182H115.604V391.293H121.793V373.182H126.278V395H100.348V373.182ZM134.7 395H129.757L137.289 373.182H143.233L150.755 395H145.811L140.346 378.168H140.176L134.7 395ZM134.391 386.424H146.067V390.025H134.391V386.424ZM168.261 395.298C166.67 395.298 165.253 395.025 164.01 394.478C162.774 393.924 161.798 393.164 161.08 392.198C160.37 391.225 160.004 390.103 159.983 388.832H164.628C164.656 389.364 164.83 389.833 165.15 390.238C165.477 390.636 165.91 390.945 166.45 391.165C166.99 391.385 167.597 391.495 168.271 391.495C168.975 391.495 169.596 391.371 170.136 391.122C170.676 390.874 171.098 390.529 171.404 390.089C171.709 389.648 171.862 389.141 171.862 388.565C171.862 387.983 171.698 387.468 171.372 387.021C171.052 386.566 170.59 386.211 169.987 385.955C169.39 385.7 168.68 385.572 167.856 385.572H165.821V382.184H167.856C168.552 382.184 169.166 382.063 169.699 381.822C170.239 381.58 170.658 381.246 170.956 380.82C171.254 380.387 171.404 379.883 171.404 379.308C171.404 378.761 171.272 378.281 171.009 377.869C170.754 377.45 170.392 377.124 169.923 376.889C169.461 376.655 168.921 376.538 168.303 376.538C167.678 376.538 167.107 376.651 166.588 376.879C166.07 377.099 165.654 377.415 165.342 377.827C165.029 378.239 164.862 378.722 164.841 379.276H160.42C160.441 378.018 160.8 376.911 161.496 375.952C162.192 374.993 163.129 374.244 164.308 373.704C165.494 373.157 166.833 372.884 168.325 372.884C169.83 372.884 171.148 373.157 172.277 373.704C173.406 374.251 174.284 374.989 174.909 375.92C175.541 376.843 175.853 377.88 175.846 379.031C175.853 380.252 175.473 381.271 174.706 382.088C173.946 382.905 172.955 383.423 171.734 383.643V383.814C173.339 384.02 174.561 384.577 175.399 385.487C176.244 386.388 176.663 387.518 176.656 388.874C176.663 390.117 176.304 391.222 175.58 392.188C174.862 393.153 173.872 393.913 172.607 394.467C171.343 395.021 169.894 395.298 168.261 395.298ZM183.86 395H178.917L186.449 373.182H192.393L199.915 395H194.972L189.506 378.168H189.336L183.86 395ZM183.551 386.424H195.227V390.025H183.551V386.424ZM219.288 395H214.686V376.953H211.575C210.687 376.953 209.949 377.085 209.359 377.347C208.777 377.603 208.34 377.979 208.049 378.477C207.757 378.974 207.612 379.585 207.612 380.309C207.612 381.026 207.757 381.626 208.049 382.109C208.34 382.592 208.777 382.955 209.359 383.196C209.941 383.437 210.673 383.558 211.554 383.558H216.561V387.266H210.808C209.139 387.266 207.711 386.989 206.525 386.435C205.339 385.881 204.434 385.085 203.809 384.048C203.184 383.004 202.871 381.758 202.871 380.309C202.871 378.867 203.176 377.614 203.787 376.548C204.405 375.476 205.297 374.648 206.461 374.066C207.633 373.477 209.043 373.182 210.691 373.182H219.288V395ZM207.516 385.071H212.491L207.186 395H202.093L207.516 385.071ZM223.078 395V373.182H231.814C233.419 373.182 234.758 373.42 235.83 373.896C236.903 374.371 237.709 375.032 238.248 375.877C238.788 376.715 239.058 377.681 239.058 378.775C239.058 379.627 238.888 380.376 238.547 381.023C238.206 381.662 237.737 382.187 237.14 382.599C236.551 383.004 235.876 383.292 235.116 383.462V383.675C235.947 383.711 236.725 383.945 237.449 384.379C238.181 384.812 238.774 385.419 239.229 386.2C239.683 386.974 239.91 387.898 239.91 388.97C239.91 390.128 239.623 391.161 239.047 392.07C238.479 392.972 237.638 393.686 236.523 394.212C235.407 394.737 234.033 395 232.4 395H223.078ZM227.691 391.229H231.452C232.737 391.229 233.675 390.984 234.264 390.494C234.854 389.996 235.148 389.336 235.148 388.512C235.148 387.908 235.003 387.376 234.711 386.914C234.42 386.452 234.005 386.09 233.465 385.827C232.932 385.565 232.297 385.433 231.558 385.433H227.691V391.229ZM227.691 382.312H231.111C231.743 382.312 232.304 382.202 232.794 381.982C233.291 381.754 233.682 381.435 233.966 381.023C234.257 380.611 234.403 380.117 234.403 379.542C234.403 378.754 234.122 378.118 233.561 377.635C233.007 377.152 232.219 376.911 231.196 376.911H227.691V382.312ZM256.112 395L249.102 385.7H247.525V395H242.912V373.182H247.525V381.896H248.452L255.696 373.182H261.438L252.926 383.303L261.832 395H256.112ZM267.913 395H262.97L270.502 373.182H276.446L283.968 395H279.024L273.559 378.168H273.389L267.913 395ZM267.604 386.424H279.28V390.025H267.604V386.424ZM82.2146 420.091C82.2146 422.47 81.7636 424.494 80.8616 426.163C79.9667 427.832 78.7451 429.107 77.1968 429.988C75.6556 430.862 73.9227 431.298 71.998 431.298C70.059 431.298 68.319 430.858 66.7778 429.977C65.2366 429.097 64.0186 427.822 63.1237 426.153C62.2288 424.484 61.7813 422.463 61.7813 420.091C61.7813 417.712 62.2288 415.688 63.1237 414.018C64.0186 412.349 65.2366 411.078 66.7778 410.205C68.319 409.324 70.059 408.884 71.998 408.884C73.9227 408.884 75.6556 409.324 77.1968 410.205C78.7451 411.078 79.9667 412.349 80.8616 414.018C81.7636 415.688 82.2146 417.712 82.2146 420.091ZM77.5377 420.091C77.5377 418.55 77.3069 417.25 76.8453 416.192C76.3907 415.134 75.748 414.331 74.917 413.784C74.086 413.237 73.113 412.964 71.998 412.964C70.8829 412.964 69.9099 413.237 69.0789 413.784C68.248 414.331 67.6017 415.134 67.14 416.192C66.6855 417.25 66.4582 418.55 66.4582 420.091C66.4582 421.632 66.6855 422.932 67.14 423.99C67.6017 425.048 68.248 425.851 69.0789 426.398C69.9099 426.945 70.8829 427.218 71.998 427.218C73.113 427.218 74.086 426.945 74.917 426.398C75.748 425.851 76.3907 425.048 76.8453 423.99C77.3069 422.932 77.5377 421.632 77.5377 420.091ZM83.8046 412.985V409.182H101.724V412.985H95.0439V431H90.4843V412.985H83.8046ZM123.222 409.182V431H118.663V412.932H109.842V431H105.282V409.182H123.222ZM127.614 431V409.182H136.222C137.877 409.182 139.287 409.498 140.451 410.13C141.616 410.755 142.504 411.625 143.115 412.74C143.733 413.848 144.042 415.126 144.042 416.575C144.042 418.024 143.729 419.303 143.104 420.411C142.479 421.518 141.574 422.381 140.388 422.999C139.209 423.617 137.781 423.926 136.105 423.926H130.618V420.229H135.359C136.247 420.229 136.978 420.077 137.554 419.771C138.136 419.459 138.569 419.029 138.853 418.482C139.145 417.928 139.29 417.293 139.29 416.575C139.29 415.851 139.145 415.219 138.853 414.679C138.569 414.132 138.136 413.71 137.554 413.411C136.971 413.106 136.233 412.953 135.338 412.953H132.227V431H127.614ZM148.279 431H143.336L150.868 409.182H156.812L164.334 431H159.391L153.925 414.168H153.755L148.279 431ZM147.97 422.424H159.646V426.025H147.97V422.424ZM166.96 431V409.182H175.696C177.301 409.182 178.639 409.42 179.712 409.896C180.784 410.371 181.59 411.032 182.13 411.877C182.67 412.715 182.94 413.681 182.94 414.775C182.94 415.627 182.769 416.376 182.429 417.023C182.088 417.662 181.619 418.187 181.022 418.599C180.433 419.004 179.758 419.292 178.998 419.462V419.675C179.829 419.711 180.607 419.945 181.331 420.379C182.063 420.812 182.656 421.419 183.11 422.2C183.565 422.974 183.792 423.898 183.792 424.97C183.792 426.128 183.505 427.161 182.929 428.07C182.361 428.972 181.519 429.686 180.404 430.212C179.289 430.737 177.915 431 176.282 431H166.96ZM171.573 427.229H175.333C176.619 427.229 177.556 426.984 178.146 426.494C178.735 425.996 179.03 425.336 179.03 424.512C179.03 423.908 178.884 423.376 178.593 422.914C178.302 422.452 177.887 422.09 177.347 421.827C176.814 421.565 176.179 421.433 175.44 421.433H171.573V427.229ZM171.573 418.312H174.992C175.625 418.312 176.186 418.202 176.676 417.982C177.173 417.754 177.563 417.435 177.848 417.023C178.139 416.611 178.284 416.117 178.284 415.542C178.284 414.754 178.004 414.118 177.443 413.635C176.889 413.152 176.1 412.911 175.078 412.911H171.573V418.312ZM185.611 431V427.293L186.229 427.239C187.025 427.175 187.667 426.874 188.157 426.334C188.647 425.787 189.013 424.917 189.255 423.724C189.503 422.523 189.663 420.911 189.734 418.887L190.096 409.182H204.905V431H200.419V412.879H194.379L194.038 420.474C193.924 422.918 193.633 424.913 193.165 426.462C192.703 428.01 191.964 429.153 190.949 429.892C189.94 430.631 188.559 431 186.804 431H185.611ZM208.708 431V409.182H223.41V412.985H213.321V418.184H222.653V421.987H213.321V427.197H223.452V431H208.708ZM227.077 431V409.182H231.69V418.184H241.054V409.182H245.657V431H241.054V421.987H231.69V431H227.077ZM253.22 431H248.277L255.809 409.182H261.754L269.275 431H264.332L258.867 414.168H258.696L253.22 431ZM252.911 422.424H264.588V426.025H252.911V422.424ZM277.239 409.182L276.823 424.459H272.924L272.498 409.182H277.239ZM274.873 431.277C274.17 431.277 273.567 431.028 273.062 430.531C272.558 430.027 272.31 429.423 272.317 428.72C272.31 428.024 272.558 427.428 273.062 426.93C273.567 426.433 274.17 426.185 274.873 426.185C275.548 426.185 276.141 426.433 276.653 426.93C277.164 427.428 277.423 428.024 277.43 428.72C277.423 429.189 277.299 429.619 277.057 430.009C276.823 430.393 276.514 430.702 276.131 430.936C275.747 431.163 275.328 431.277 274.873 431.277Z" fill="#81AEDC"/>
</svg>
