<svg width="22" height="22" viewBox="0 0 22 22" fill="none" xmlns="http://www.w3.org/2000/svg">
<g clip-path="url(#clip0_169_25)">
<path d="M4.48287 14.6241C6.65278 17.218 9.26488 19.2603 12.2462 20.7053C13.3813 21.2433 14.8994 21.8815 16.5906 21.9909C16.6955 21.9954 16.7958 22 16.9006 22C18.0357 22 18.9474 21.608 19.6905 20.8011C19.6951 20.7965 19.7042 20.7874 19.7087 20.7783C19.9731 20.4592 20.274 20.172 20.5885 19.8666C20.8028 19.6614 21.0216 19.4472 21.2313 19.2283C22.2023 18.2163 22.2023 16.9308 21.2222 15.9507L18.4825 13.2109C18.0175 12.7277 17.4613 12.4724 16.8778 12.4724C16.2943 12.4724 15.7336 12.7277 15.2549 13.2064L13.6229 14.8384C13.4725 14.7518 13.3175 14.6743 13.1716 14.6013C12.9893 14.5102 12.8206 14.4235 12.6702 14.3278C11.1841 13.3842 9.83471 12.1533 8.54462 10.5715C7.89273 9.74637 7.4551 9.05346 7.14967 8.34687C7.57819 7.95939 7.97935 7.55367 8.36683 7.15707C8.50359 7.01575 8.64491 6.87443 8.78623 6.73311C9.27856 6.24078 9.54296 5.67095 9.54296 5.092C9.54296 4.51305 9.28312 3.94322 8.78623 3.45089L7.42775 2.09242C7.2682 1.93286 7.11776 1.77787 6.96277 1.61832C6.6619 1.30833 6.34735 0.989225 6.03737 0.702031C5.56783 0.241608 5.01623 0 4.43272 0C3.85378 0 3.29762 0.241608 2.80985 0.706589L1.10492 2.41152C0.484941 3.0315 0.133925 3.78367 0.0609871 4.65437C-0.025627 5.74389 0.174953 6.90178 0.694638 8.30128C1.4924 10.4666 2.69588 12.477 4.48287 14.6241ZM1.1733 4.7501C1.228 4.1438 1.46049 3.6378 1.89812 3.20017L3.59393 1.50435C3.85834 1.24907 4.15009 1.11687 4.43272 1.11687C4.7108 1.11687 4.99344 1.24907 5.25328 1.51347C5.55871 1.7961 5.8459 2.09242 6.15589 2.40696C6.31088 2.56651 6.47044 2.72607 6.62999 2.89018L7.98846 4.24865C8.2711 4.53129 8.41698 4.81848 8.41698 5.10112C8.41698 5.38375 8.2711 5.67095 7.98846 5.95359C7.84715 6.0949 7.70583 6.24078 7.56451 6.3821C7.14056 6.81061 6.74396 7.21633 6.30633 7.60381C6.29721 7.61293 6.29265 7.61749 6.28353 7.62661C5.90517 8.00497 5.96443 8.36511 6.0556 8.63862C6.06016 8.6523 6.06472 8.66142 6.06928 8.67509C6.42029 9.51844 6.90807 10.3208 7.66936 11.2781C9.03695 12.9648 10.4775 14.2731 12.0639 15.2806C12.2599 15.4082 12.4696 15.5085 12.6656 15.6088C12.848 15.7 13.0166 15.7866 13.1671 15.8823C13.1853 15.8914 13.199 15.9005 13.2172 15.9097C13.3677 15.9872 13.5135 16.0236 13.6594 16.0236C14.0241 16.0236 14.2612 15.7911 14.3387 15.7136L16.0436 14.0087C16.308 13.7443 16.5952 13.603 16.8778 13.603C17.2243 13.603 17.5069 13.8172 17.6847 14.0087L20.4336 16.753C20.9806 17.3 20.976 17.8927 20.4199 18.4716C20.2284 18.6768 20.0278 18.8728 19.8136 19.0779C19.4945 19.3879 19.1617 19.707 18.8608 20.0671C18.3366 20.6324 17.712 20.8968 16.9052 20.8968C16.8277 20.8968 16.7456 20.8923 16.6681 20.8877C15.1729 20.792 13.7825 20.2085 12.7386 19.7116C9.90309 18.3394 7.41408 16.3929 5.34901 13.9221C3.64864 11.8753 2.50442 9.96975 1.74768 7.92748C1.27814 6.67385 1.10036 5.66639 1.1733 4.7501Z" fill="white"/>
</g>
<defs>
<clipPath id="clip0_169_25">
<rect width="22" height="22" fill="white"/>
</clipPath>
</defs>
</svg>
