<svg width="69" height="69" viewBox="0 0 69 69" fill="none" xmlns="http://www.w3.org/2000/svg">
    <path
        d="M62.4945 13.8C57.9669 13.8 53.7131 11.676 50.8231 7.97295C46.8683 2.9049 40.9193 0 34.5 0C28.0807 0 22.1318 2.9049 18.1781 7.97295C15.287 11.676 11.0331 13.8 6.50556 13.8C4.82081 13.8 3.45001 15.1708 3.45001 16.8555V17.25C3.45001 17.8664 3.70186 18.4678 4.14116 18.9002C4.57586 19.3292 5.11751 19.55 5.75001 19.55C5.75001 28.3326 10.971 35.9019 18.4621 39.3703L15.5354 65.4867C15.3203 66.3136 15.4871 67.1727 15.9988 67.8626C16.5347 68.586 17.3581 69 18.2574 69H19.3844C20.6322 69 21.712 68.1984 22.0754 67.0047L23.5854 53.6383L34.5 47.326L45.4032 53.6314L46.8821 66.7989L46.9246 67.0047C47.2869 68.1984 48.3679 69 49.6156 69H50.7426C51.6419 69 52.4653 68.586 53.0012 67.8638C53.513 67.1727 53.6797 66.3136 53.4647 65.4879L50.5379 39.3714C58.0279 35.9018 63.242 28.3326 63.2213 19.55C63.8837 19.5523 64.4265 19.3211 64.8669 18.8864C65.3074 18.4506 65.55 17.8699 65.55 17.25V16.8555C65.55 15.1708 64.1792 13.8 62.4945 13.8ZM19.3844 66.7H18.2574C18.0332 66.7 17.9032 66.5712 17.8469 66.493C17.7905 66.4148 17.7031 66.2549 17.7687 66.0399L20.6759 40.2673C20.7161 40.281 20.7598 40.2891 20.8012 40.3017C21.3797 40.4915 21.9719 40.6502 22.5711 40.7916C22.6217 40.8032 22.67 40.8215 22.7206 40.833L19.8479 66.4056C19.7639 66.5816 19.5822 66.7 19.3844 66.7ZM23.9074 50.7955L24.9251 41.7887L32.2035 45.9977L23.9074 50.7955ZM28.8466 41.4H40.1546L34.5 44.6694L28.8466 41.4ZM36.7966 45.9977L44.0726 41.7898L45.0835 50.7909L36.7966 45.9977ZM48.3242 40.2684L51.1888 65.8352L51.2314 66.041C51.2969 66.2561 51.2095 66.4159 51.1532 66.4941C51.0968 66.5723 50.9669 66.7 50.7426 66.7H49.6156C49.4178 66.7 49.2373 66.5816 49.1533 66.4067L46.2806 40.8342C46.3324 40.8227 46.3807 40.8043 46.4313 40.7928C47.0293 40.6513 47.6215 40.4938 48.1988 40.3041C48.2402 40.2891 48.2839 40.281 48.3242 40.2684ZM63.25 17.25C62.644 17.2822 62.0736 17.4742 61.6377 17.9032C61.2007 18.3344 60.95 18.9347 60.95 19.55C60.95 27.6311 56.0211 34.5828 49.0119 37.5567L48.9889 37.5659C48.8463 37.6269 48.6945 37.6694 48.5496 37.7269C48.0229 37.9328 47.4893 38.1282 46.9338 38.2892C46.889 38.303 46.843 38.3111 46.797 38.3249C46.1587 38.5055 45.5044 38.6595 44.8351 38.778C43.7173 38.9781 42.5742 39.1 41.4 39.1H27.6C26.4259 39.1 25.2828 38.9781 24.165 38.7791C23.4945 38.6595 22.8413 38.5054 22.2031 38.326C22.1582 38.3134 22.1111 38.3042 22.0662 38.2904C21.5108 38.1294 20.976 37.9339 20.4505 37.728C20.3056 37.6705 20.1549 37.628 20.0112 37.567L19.9882 37.5578C12.9789 34.5828 8.05001 27.6311 8.05001 19.55C8.05001 18.9278 7.80621 18.3448 7.36231 17.9078C6.92991 17.4823 6.36181 17.25 5.78451 17.25C5.77416 17.25 5.76151 17.25 5.75001 17.25V16.8555C5.75001 16.4392 6.08926 16.1 6.50556 16.1C11.7461 16.1 16.6612 13.6528 19.9905 9.38745C23.5049 4.8829 28.7937 2.3 34.5 2.3C40.2063 2.3 45.4952 4.8829 49.0096 9.38745C52.3388 13.6528 57.2539 16.1 62.4945 16.1C62.9108 16.1 63.25 16.4392 63.25 16.8555V17.25Z" />
    <path
        d="M50.4045 25.461L49.565 25.2816C40.334 23.3036 30.9707 23.3024 21.7373 25.2816L20.8955 25.461H20.8944C19.4488 25.7715 18.4 27.0687 18.4 28.5465V30.1932C18.4 31.1512 18.8267 32.0448 19.5719 32.6474C20.3171 33.25 21.275 33.4788 22.2192 33.2798C31.1317 31.3708 40.1684 31.3708 49.0832 33.2798C49.304 33.327 49.5259 33.35 49.7479 33.35C50.4632 33.35 51.1601 33.1074 51.7293 32.6474C52.4734 32.0448 52.9 31.1512 52.9 30.1932V28.5465C52.9 27.0687 51.8512 25.7715 50.4045 25.461ZM50.6 30.1932C50.6 30.5486 50.4011 30.7625 50.2826 30.8591C50.1642 30.9546 49.9181 31.1064 49.565 31.0305C44.9478 30.0415 40.2995 29.5458 35.65 29.5458C31.0017 29.5458 26.3523 30.0415 21.7362 31.0305C21.3843 31.1052 21.137 30.9546 21.0174 30.8591C20.899 30.7625 20.7 30.5474 20.7 30.1932V28.5465C20.7 28.1451 20.9852 27.7932 21.3774 27.7081L22.218 27.5287C31.1305 25.6197 40.1695 25.6197 49.082 27.5287L49.9215 27.7081C50.3148 27.7932 50.6 28.1463 50.6 28.5465V30.1932Z" />
</svg>