<svg width="69" height="69" viewBox="0 0 69 69" fill="none" xmlns="http://www.w3.org/2000/svg">
    <path
        d="M60.5163 0H8.48355C7.81407 0 7.27161 0.542628 7.27161 1.21194V67.7881C7.27161 68.4574 7.81407 69 8.48355 69H60.5163C61.1858 69 61.7283 68.4574 61.7283 67.7881V1.21194C61.7283 0.542628 61.1858 0 60.5163 0ZM59.3044 16.644H35.7119V2.42389H59.3044V16.644ZM35.7119 35.7119H59.3044V49.9321H35.7119V35.7119ZM35.7119 33.2881V19.0679H59.3044V33.2881H35.7119ZM9.69549 2.42389H33.288V66.5761H9.69549V2.42389ZM35.7119 66.5761V52.356H59.3044V66.5761H35.7119Z" />
    <path
        d="M29.8138 28.925C29.1443 28.925 28.6018 29.4677 28.6018 30.137V38.863C28.6018 39.5323 29.1443 40.0749 29.8138 40.0749C30.4832 40.0749 31.0257 39.5323 31.0257 38.863V30.137C31.0257 29.4677 30.4832 28.925 29.8138 28.925Z" />
</svg>