<svg width="69" height="69" viewBox="0 0 69 69" fill="none" xmlns="http://www.w3.org/2000/svg">
    <path
        d="M68.9781 65.9389L59.5809 19.6089H66.2511C66.8574 19.6089 67.349 19.1174 67.349 18.511V6.33868C67.349 3.80563 65.2883 1.74493 62.7553 1.74493H6.24288C3.70983 1.74493 1.64914 3.80563 1.64914 6.33868V18.511C1.64914 19.1174 2.14089 19.6089 2.74707 19.6089H9.41903L0.0219783 65.9389C-0.0435177 66.2617 0.0394978 66.597 0.24798 66.8521C0.456462 67.1072 0.768579 67.2551 1.09795 67.2551H9.25381C9.77603 67.2551 10.226 66.8873 10.3298 66.3754L15.6584 40.1078H53.3411L58.6697 66.3754C58.7735 66.8873 59.2235 67.2551 59.7457 67.2551H67.9015C68.2309 67.2551 68.5432 67.1069 68.7515 66.8521C68.9605 66.597 69.0435 66.2618 68.9781 65.9389ZM3.845 17.4129V6.33868C3.845 5.0165 4.9207 3.94094 6.24275 3.94094H62.7553C64.0774 3.94094 65.153 5.01663 65.153 6.33868V17.413H3.845V17.4129ZM49.1841 19.6089L51.6421 31.7289H17.3578L19.8158 19.6089H49.1841ZM8.35627 65.0593H2.44088L11.6592 19.6108H17.5748L8.35627 65.0593ZM16.1041 37.9121L16.9125 33.9247H52.0875L52.896 37.9121H16.1041ZM60.6436 65.0593L51.4251 19.6106H57.3404L66.5587 65.0592H60.6436V65.0593Z" />
</svg>