<svg width="69" height="69" viewBox="0 0 69 69" fill="none" xmlns="http://www.w3.org/2000/svg">
    <path
        d="M69 15.6328V8.08575H0V15.6328H33.4218V19.9451H29.1093V39.3514C29.1093 41.9548 30.9643 44.1328 33.4218 44.6337V48.624C31.136 49.0899 29.3719 51.0066 29.1363 53.3671H26.9531V54.4453C26.9531 55.6343 25.9859 56.6015 24.7969 56.6015H23.7188V60.9141H45.2812V56.6015H44.2031C43.0141 56.6015 42.0469 55.6343 42.0469 54.4453V53.3671H39.8637C39.6283 51.0067 37.864 49.0899 35.5782 48.624V44.6337C38.0357 44.1328 39.8907 41.9548 39.8907 39.3514V19.9451H35.5782V15.6328H69ZM40.0269 55.5234C40.4179 57.0367 41.6116 58.2305 43.1249 58.6213V58.7578H25.8751V58.6213C27.3884 58.2305 28.5821 57.0366 28.9729 55.5234H40.0269ZM37.6885 53.3671H31.3113C31.5688 51.8395 32.9001 50.6719 34.4999 50.6719C36.0997 50.6719 37.431 51.8394 37.6885 53.3671ZM37.7344 22.1015V39.3514C37.7344 41.1349 36.2835 42.5858 34.5 42.5858C32.7165 42.5858 31.2656 41.1349 31.2656 39.3514V22.1015H37.7344ZM2.15633 13.4764V10.2421H66.8437V13.4764H2.15633Z" />
</svg>