<svg width="16" height="21" viewBox="0 0 16 21" fill="none" xmlns="http://www.w3.org/2000/svg">
<path d="M9 1C9 0.447715 8.55228 2.41411e-08 8 0C7.44772 -2.41411e-08 7 0.447715 7 1L9 1ZM7.29289 20.7071C7.68342 21.0976 8.31658 21.0976 8.70711 20.7071L15.0711 14.3431C15.4616 13.9526 15.4616 13.3195 15.0711 12.9289C14.6805 12.5384 14.0474 12.5384 13.6569 12.9289L8 18.5858L2.34315 12.9289C1.95262 12.5384 1.31946 12.5384 0.928932 12.9289C0.538407 13.3195 0.538407 13.9526 0.928932 14.3431L7.29289 20.7071ZM7 1L7 20L9 20L9 1L7 1Z" fill="#2E72B9"/>
</svg>
